<?xml version="1.0" encoding="UTF-8" standalone="no"?>
<!-- Created with Inkscape (http://www.inkscape.org/) -->
<svg
   xmlns:dc="http://purl.org/dc/elements/1.1/"
   xmlns:cc="http://creativecommons.org/ns#"
   xmlns:rdf="http://www.w3.org/1999/02/22-rdf-syntax-ns#"
   xmlns:svg="http://www.w3.org/2000/svg"
   xmlns="http://www.w3.org/2000/svg"
   xmlns:sodipodi="http://sodipodi.sourceforge.net/DTD/sodipodi-0.dtd"
   xmlns:inkscape="http://www.inkscape.org/namespaces/inkscape"
   width="32"
   height="32"
   id="svg2"
   sodipodi:version="0.32"
   inkscape:version="0.46"
   sodipodi:docname="32x32_save.svg"
   version="1.0"
   inkscape:output_extension="org.inkscape.output.svg.inkscape">
  <defs
     id="defs4">
    <inkscape:perspective
       sodipodi:type="inkscape:persp3d"
       inkscape:vp_x="0 : 526.18109 : 1"
       inkscape:vp_y="0 : 1000 : 0"
       inkscape:vp_z="744.09448 : 526.18109 : 1"
       inkscape:persp3d-origin="372.04724 : 350.78739 : 1"
       id="perspective10" />
  </defs>
  <sodipodi:namedview
     id="base"
     pagecolor="#ffffff"
     bordercolor="#666666"
     borderopacity="1.0"
     gridtolerance="10000"
     guidetolerance="10"
     objecttolerance="10"
     inkscape:pageopacity="0.0"
     inkscape:pageshadow="2"
     inkscape:zoom="16"
     inkscape:cx="12.095115"
     inkscape:cy="13.74997"
     inkscape:document-units="px"
     inkscape:current-layer="layer1"
     showgrid="true"
     inkscape:window-width="1596"
     inkscape:window-height="1165"
     inkscape:window-x="2"
     inkscape:window-y="2"
     inkscape:snap-global="true">
    <inkscape:grid
       type="xygrid"
       id="grid2403"
       visible="true"
       enabled="true" />
  </sodipodi:namedview>
  <metadata
     id="metadata7">
    <rdf:RDF>
      <cc:Work
         rdf:about="">
        <dc:format>image/svg+xml</dc:format>
        <dc:type
           rdf:resource="http://purl.org/dc/dcmitype/StillImage" />
      </cc:Work>
    </rdf:RDF>
  </metadata>
  <g
     inkscape:label="Layer 1"
     inkscape:groupmode="layer"
     id="layer1">
    <path
       style="fill:#35408b;fill-opacity:1"
       d="M 3.8125,2 L 28.1875,2 C 29.191625,2 30,2.808375 30,3.8125 L 30,29 C 30,30.004125 30.004125,30 29,30 L 3,30 C 1.995875,30 2,30.004125 2,29 L 2,3.8125 C 2,2.808375 2.808375,2 3.8125,2 z"
       id="rect3288"
       sodipodi:nodetypes="ccccccccc" />
    <path
       style="fill:#b5bcc3;fill-opacity:1"
       d="M 9,20.161491 L 22.957735,20.161491 C 23.407304,20.161491 23.769232,20.535466 23.769232,21 L 23.769232,30 L 8.1885037,30 L 8.1885037,21 C 8.1885037,20.535466 8.5504308,20.161491 9,20.161491 z"
       id="rect3295"
       sodipodi:nodetypes="ccccccc" />
    <path
       style="fill:#ffffff;fill-opacity:1"
       d="M 6,2 L 26,2 L 26,15.0625 C 26,15.581875 25.619887,16 25.147728,16 L 6.8522728,16 C 6.3801136,16 6,15.581875 6,15.0625 L 6,2 z"
       id="rect3298"
       sodipodi:nodetypes="ccccccc" />
    <path
       style="fill:none;fill-rule:evenodd;stroke:#000000;stroke-width:0.1;stroke-linecap:butt;stroke-linejoin:miter;stroke-opacity:1;stroke-miterlimit:4;stroke-dasharray:none"
       d="M 5,2 C 7,2 27,2 27,2"
       id="path3305" />
    <path
       style="fill:#ff0000;fill-opacity:1;stroke-width:0.1;stroke-miterlimit:4"
       d="M 26,13 L 26,15.0625 C 26,15.581875 25.619887,16 25.147728,16 L 6.8522728,16 C 6.3801136,16 6,15.581875 6,15.0625 L 6,13.0625 L 26,13 z"
       id="rect3307"
       sodipodi:nodetypes="ccccccc" />
  </g>
</svg>
